/* XPM */
static char * char_xpm[] = {
"50 50 4 1",
" 	c #636363",
".	c #D1BB7F",
"+	c #000000",
"@	c #FFFFFF",
"                                                  ",
"                                                  ",
"                                                  ",
"                                                  ",
"             .......................              ",
"             .......................              ",
"             .......................              ",
"             .......................              ",
"             .......................              ",
"             .......................              ",
"             ....+++.......+++......              ",
"             ....+++.......+++......              ",
"             ....+++.......+++......              ",
"             .......................              ",
"             .......................              ",
"             .......................              ",
"             ......++++++++++.......              ",
"             ......++++++++++.......              ",
"             .......................              ",
"             .......................              ",
"             .......................              ",
"             .......................              ",
"                  ++++++@@@@++++                  ",
"                  ++++++@@@@++++                  ",
"                  ++++++@@@@++++                  ",
"                  ++++++@@@@++++                  ",
"                  ++++++@@@@++++                  ",
"                  ++++++@@@@++++                  ",
"                  ++++++@@@@++++                  ",
"                  ++++++@@@@++++                  ",
"                  ++++++@@@@++++                  ",
"                  ++++++@@@@++++                  ",
"                  ++++++@@@@++++                  ",
"                  ++++++@@@@++++                  ",
"                  ++++++@@@@++++                  ",
"                  ++++++@@@@++++                  ",
"                  ++++++@@@@++++                  ",
"                  ++++++@@@@++++                  ",
"                  ++++++@@@@++++                  ",
"                    ++++    +++                   ",
"                    ++++    +++                   ",
"                    ++++    +++                   ",
"                    ++++    +++                   ",
"                    ++++    +++                   ",
"                    ++++    +++                   ",
"                    ++++    +++                   ",
"                    ++++    +++                   ",
"                    ++++    +++                   ",
"                    ++++    +++                   ",
"                    ++++    +++                   "};
