/* XPM */
static char * collectible_xpm[] = {
"50 50 57 1",
" 	c #000000",
".	c #786E00",
"+	c #B2A400",
"@	c #D4C300",
"#	c #EAD700",
"$	c #F7E400",
"%	c #FEEA00",
"&	c #403A00",
"*	c #AFA100",
"=	c #E5D300",
"-	c #FFEB00",
";	c #EEDB00",
">	c #CBB800",
",	c #837800",
"'	c #DAC800",
")	c #F6E200",
"!	c #998700",
"~	c #A49700",
"{	c #EFDC00",
"]	c #DFCC00",
"^	c #988600",
"/	c #B1A300",
"(	c #F8E500",
"_	c #C9B700",
":	c #F9E600",
"<	c #B5A200",
"[	c #9F9300",
"}	c #9F8D00",
"|	c #796F00",
"1	c #ECD900",
"2	c #D5C400",
"3	c #ECD800",
"4	c #AA9C00",
"5	c #E2CF00",
"6	c #3D3800",
"7	c #EBD800",
"8	c #D9C600",
"9	c #B2A300",
"0	c #D0BD00",
"a	c #EAD800",
"b	c #C8B600",
"c	c #978B00",
"d	c #C0AE00",
"e	c #CFBE00",
"f	c #B9A700",
"g	c #F5E100",
"h	c #B3A000",
"i	c #847900",
"j	c #AD9A00",
"k	c #A89500",
"l	c #A39100",
"m	c #E3D100",
"n	c #F1DE00",
"o	c #9C8A00",
"p	c #FAE600",
"q	c #9A8700",
"r	c #998600",
"                                                  ",
"                   .+@#$%%$#@+.                   ",
"                &*=------------=*&                ",
"               *;------->>-------;*               ",
"             ,'--------)!!)--------',             ",
"            ~{---------]^^]---------{~            ",
"           /(----------_^^_----------(/           ",
"          *:-----------<^^<-----------:*          ",
"         [$------------}^^}------------$[         ",
"        |1------------)^^^^)------------1|        ",
"        2-------------3^^^^3-------------2        ",
"       4--------------5^^^^5--------------4       ",
"      67--------------8^^^^8--------------76      ",
"      9---------------0^^^^0---------------9      ",
"      a---------------b^^^^b---------------a      ",
"     c----------------d^^^^d----------------c     ",
"     e----------------f^^^^f----------------e     ",
"     g----------------h^^^^h----------------g     ",
"    i-----------------j^^^^j-----------------i    ",
"    9-----------------k^^^^k-----------------9    ",
"    e-----------------l^^^^l-----------------e    ",
"    m-----------------}^^^^}-----------------m    ",
"    n-----------------o^^^^o-----------------n    ",
"    p-----------------q^^^^q-----------------p    ",
"    ------------------r^^^^r------------------    ",
"    ------------------^^^^^^------------------    ",
"    p-----------------r^^^^r-----------------p    ",
"    n-----------------q^^^^q-----------------n    ",
"    m-----------------o^^^^o-----------------m    ",
"    e-----------------}^^^^}-----------------e    ",
"    9-----------------l^^^^l-----------------9    ",
"    i-----------------k^^^^k-----------------i    ",
"     g----------------j^^^^j----------------g     ",
"     e----------------h^^^^h----------------e     ",
"     c----------------f^^^^f----------------c     ",
"      a---------------d^^^^d---------------a      ",
"      9---------------b^^^^b---------------9      ",
"      67--------------0^^^^0--------------76      ",
"       4--------------8^^^^8--------------4       ",
"        2-------------5^^^^5-------------2        ",
"        |1------------3^^^^3------------1|        ",
"         [$-----------)^^^^)-----------$[         ",
"          *:-----------}^^}-----------:*          ",
"           /(----------<^^<----------(/           ",
"            ~{---------_^^_---------{~            ",
"             ,'--------]^^]--------',             ",
"               *;------)!!)------;*               ",
"                &*=----->>-----=*&                ",
"                   .+@#$%%$#@+.                   ",
"                                                  "};
