/* XPM */
static char * wall_xpm[] = {
"50 50 2 1",
" 	c #6E5512",
".	c #D1BB7F",
"                       ....                       ",
"                       ....                       ",
"                       ....                       ",
"                       ....                       ",
"                       ....                       ",
"..................................................",
"..................................................",
"..................................................",
"..................................................",
"..................................................",
"                       ....                       ",
"                       ....                       ",
"                       ....                       ",
"                       ....                       ",
"                       ....                       ",
"..................................................",
"..................................................",
"..................................................",
"..................................................",
"..................................................",
"                       ....                       ",
"                       ....                       ",
"                       ....                       ",
"                       ....                       ",
"                       ....                       ",
"..................................................",
"..................................................",
"..................................................",
"..................................................",
"..................................................",
"                       ....                       ",
"                       ....                       ",
"                       ....                       ",
"                       ....                       ",
"                       ....                       ",
"..................................................",
"..................................................",
"..................................................",
"..................................................",
"..................................................",
"                       ....                       ",
"                       ....                       ",
"                       ....                       ",
"                       ....                       ",
"                       ....                       ",
"..................................................",
"..................................................",
"..................................................",
"..................................................",
".................................................."};
