/* XPM */
static char * exit_xpm[] = {
"50 50 3 1",
" 	c #7E0303",
".	c #EC1111",
"+	c #930000",
" ................................................ ",
". .............................................. .",
".. ++++++++++++++++++++++++++++++++++++++++++++ ..",
"..+ ++++++++++++++++++++++++++++++++++++++++++ +..",
"..++ ++++++++++++++++++++++++++++++++++++++++ ++..",
"..+++ ++++++++++++++++++++++++++++++++++++++ +++..",
"..++++ ++++++++++++++++++++++++++++++++++++ ++++..",
"..+++++ ++++++++++++++++++++++++++++++++++ +++++..",
"..++++++ ++++++++++++++++++++++++++++++++ ++++++..",
"..+++++++ ++++++++++++++++++++++++++++++ +++++++..",
"..++++++++ ++++++++++++++++++++++++++++ ++++++++..",
"..+++++++++ ++++++++++++++++++++++++++ +++++++++..",
"..++++++++++ ++++++++++++++++++++++++ ++++++++++..",
"..+++++++++++ ++++++++++++++++++++++ +++++++++++..",
"..++++++++++++ ++++++++++++++++++++ ++++++++++++..",
"..+++++++++++++ ++++++++++++++++++ +++++++++++++..",
"..++++++++++++++ ++++++++++++++++ ++++++++++++++..",
"..+++++++++++++++ ++++++++++++++ +++++++++++++++..",
"..++++++++++++++++ ++++++++++++ ++++++++++++++++..",
"..+++++++++++++++++ ++++++++++ +++++++++++++++++..",
"..++++++++++++++++++ ++++++++ ++++++++++++++++++..",
"..+++++++++++++++++++ ++++++ +++++++++++++++++++..",
"..++++++++++++++++++++ ++++ ++++++++++++++++++++..",
"..+++++++++++++++++++++ ++ +++++++++++++++++++++..",
"..++++++++++++++++++++++  ++++++++++++++++++++++..",
"..++++++++++++++++++++++  ++++++++++++++++++++++..",
"..+++++++++++++++++++++ ++ +++++++++++++++++++++..",
"..++++++++++++++++++++ ++++ ++++++++++++++++++++..",
"..+++++++++++++++++++ ++++++ +++++++++++++++++++..",
"..++++++++++++++++++ ++++++++ ++++++++++++++++++..",
"..+++++++++++++++++ ++++++++++ +++++++++++++++++..",
"..++++++++++++++++ ++++++++++++ ++++++++++++++++..",
"..+++++++++++++++ ++++++++++++++ +++++++++++++++..",
"..++++++++++++++ ++++++++++++++++ ++++++++++++++..",
"..+++++++++++++ ++++++++++++++++++ +++++++++++++..",
"..++++++++++++ ++++++++++++++++++++ ++++++++++++..",
"..+++++++++++ ++++++++++++++++++++++ +++++++++++..",
"..++++++++++ ++++++++++++++++++++++++ ++++++++++..",
"..+++++++++ ++++++++++++++++++++++++++ +++++++++..",
"..++++++++ ++++++++++++++++++++++++++++ ++++++++..",
"..+++++++ ++++++++++++++++++++++++++++++ +++++++..",
"..++++++ ++++++++++++++++++++++++++++++++ ++++++..",
"..+++++ ++++++++++++++++++++++++++++++++++ +++++..",
"..++++ ++++++++++++++++++++++++++++++++++++ ++++..",
"..+++ ++++++++++++++++++++++++++++++++++++++ +++..",
"..++ ++++++++++++++++++++++++++++++++++++++++ ++..",
"..+ ++++++++++++++++++++++++++++++++++++++++++ +..",
".. ++++++++++++++++++++++++++++++++++++++++++++ ..",
". .............................................. .",
" ................................................ "};
